# xmcd CD database file generated by Grip 3.3.1
# 
# Track frame offsets:
#       150
#       19018
#       40022
#       57284
#       70829
#       104423
#       116493
#       148007
#       160747
#       171693
#       199464
#       225845
#       248055
#       266990
# 
# Disc length: 3946 seconds
# 
# Revision: 1
# Processed by: cddbd v1.5.2PL0 Copyright (c) Steve Scherf et al.
# Submitted via: Grip 3.3.1
# 
DISCID=c60f680e
DTITLE=Mark Isham - Pure
DYEAR=2006
DGENRE=New Age
TTITLE0=Seeking Isaiah
TTITLE1=Raffles in Rio
TTITLE2=Lazy Afternoon
TTITLE3=Thumbelina
TTITLE4=On the Threshold of Liberty
TTITLE5=Pittsburgh 1901 (Theme From Mrs. Soffel)
TTITLE6=Miles to Go... Before He Sleeps
TTITLE7=Azael
TTITLE8=A Spangled Heart-Belonging to All Time And Earth
TTITLE9=Men Before the Mirror
TTITLE10=A Tale of Two Cities
TTITLE11=Tibet Part II
TTITLE12=In the Blue Distance
TTITLE13=All Blues
EXTD=YEAR: 2006
EXTT0=
EXTT1=
EXTT2=
EXTT3=
EXTT4=
EXTT5=
EXTT6=
EXTT7=
EXTT8=
EXTT9=
EXTT10=
EXTT11=
EXTT12=
EXTT13=
PLAYORDER=
